<svg width="50" height="51" viewBox="0 0 50 51" fill="none" xmlns="http://www.w3.org/2000/svg">
<path d="M4.44003 25.7388C4.41247 22.0931 5.36957 18.5075 7.21031 15.3606C9.01363 12.2343 11.6093 9.63863 14.7356 7.83531C17.8825 5.99457 21.4681 5.03747 25.1138 5.06503C28.7595 5.03747 32.345 5.99457 35.492 7.83531C38.6184 9.63855 41.214 12.2342 43.0172 15.3606C44.858 18.5075 45.8151 22.0931 45.7875 25.7388C45.8151 29.3845 44.858 32.97 43.0172 36.117C41.214 39.2434 38.6184 41.839 35.492 43.6422C32.345 45.483 28.7595 46.4401 25.1138 46.4125C21.4681 46.4401 17.8825 45.483 14.7356 43.6422C11.6093 41.8389 9.01363 39.2433 7.21031 36.117C5.36957 32.97 4.41247 29.3845 4.44003 25.7388V25.7388ZM7.87187 25.7388C7.83433 29.9407 9.38492 34.0017 12.2134 37.1093C13.7742 34.2357 15.914 31.7135 18.4982 29.7081C20.9127 27.599 23.7871 26.0839 26.8917 25.284C26.4782 24.3185 26.0792 23.4502 25.6926 22.6791C20.7146 24.2307 15.5254 24.998 10.3114 24.9532C9.23634 24.9532 8.43627 24.9387 7.91322 24.9118C7.91322 25.0214 7.90702 25.1599 7.89255 25.3253C7.87808 25.4907 7.87187 25.6292 7.87187 25.7388V25.7388ZM8.40939 21.48C9.01513 21.5358 9.91237 21.5627 11.097 21.5627C15.5335 21.5865 19.9495 20.9597 24.2041 19.702C22.3447 16.296 20.0208 13.1649 17.2991 10.3989C15.1199 11.5028 13.2079 13.0691 11.6965 14.9884C10.1619 16.9005 9.04242 19.1113 8.40939 21.48V21.48ZM14.5702 39.3421C16.8835 41.1698 19.6348 42.3604 22.5507 42.7956C25.4666 43.2308 28.4457 42.8955 31.1919 41.823C30.6505 37.1514 29.5682 32.5586 27.9668 28.1369C25.1004 28.8639 22.4629 30.2999 20.2968 32.313C17.9489 34.2613 16.0037 36.6489 14.5702 39.3421V39.3421ZM20.8963 9.07574C23.5462 11.894 25.8124 15.05 27.636 18.4616C30.9271 17.22 33.8453 15.1559 36.1122 12.4662C33.0414 9.8657 29.1376 8.45678 25.1138 8.49687C23.6883 8.49956 22.2698 8.69427 20.8963 9.07574V9.07574ZM29.1245 21.3973C29.538 22.2801 30.0073 23.3964 30.5303 24.7464C32.5708 24.5542 34.7891 24.457 37.1872 24.457C38.897 24.457 40.5922 24.4984 42.273 24.5811C42.0748 20.8874 40.6487 17.3657 38.2209 14.575C35.8943 17.6629 32.7404 20.0284 29.1245 21.3973V21.3973ZM31.564 27.6408C32.9698 31.7135 33.9249 35.9309 34.417 40.2104C36.5755 38.8239 38.3977 36.9735 39.7508 34.7939C41.1144 32.6309 41.9632 30.1836 42.2316 27.6408C40.2201 27.5023 38.3863 27.434 36.7324 27.434C35.217 27.434 33.4928 27.5023 31.564 27.6408V27.6408Z" fill="#A9A9A9"/>
</svg>
