<svg width="50" height="51" viewBox="0 0 50 51" fill="none" xmlns="http://www.w3.org/2000/svg">
<path d="M42.4681 5.06474H7.45505C6.65926 5.05481 5.89208 5.3613 5.3222 5.91684C4.75232 6.47238 4.42637 7.2315 4.41602 8.02729V43.4518C4.43876 45.1057 5.79909 46.4329 7.45505 46.4122H42.4681C42.862 46.4174 43.2531 46.345 43.6191 46.199C43.985 46.053 44.3186 45.8364 44.6008 45.5615C44.883 45.2866 45.1083 44.9588 45.2638 44.5968C45.4193 44.2348 45.502 43.8457 45.5071 43.4518V8.02729C45.5023 7.63299 45.4197 7.24352 45.2642 6.88116C45.1087 6.5188 44.8833 6.19065 44.6008 5.91549C44.3184 5.64033 43.9844 5.42356 43.6181 5.27758C43.2518 5.1316 42.8603 5.05928 42.466 5.06474H42.4681ZM16.874 39.6767H10.6678V21.0063H16.874V39.6767ZM14.2795 18.4613C14.1101 18.4733 13.94 18.4719 13.7709 18.4572H13.7295C13.2841 18.4867 12.8374 18.4237 12.4176 18.2722C11.9977 18.1206 11.6137 17.8839 11.2898 17.5768C10.9658 17.2696 10.709 16.8988 10.5353 16.4876C10.3616 16.0764 10.2749 15.6337 10.2806 15.1873C10.2864 14.741 10.3844 14.3007 10.5685 13.894C10.7527 13.4874 11.019 13.1233 11.3507 12.8246C11.6824 12.5259 12.0723 12.299 12.4959 12.1583C12.9196 12.0176 13.3677 11.9661 13.8122 12.007C14.6681 11.945 15.5136 12.2256 16.1626 12.787C16.8116 13.3484 17.2111 14.1446 17.273 15.0005C17.335 15.8564 17.0544 16.7019 16.493 17.3509C15.9316 17.9999 15.1354 18.3994 14.2795 18.4613ZM39.2513 39.6767H33.045V29.6913C33.045 27.1794 32.1478 25.4677 29.9026 25.4677C29.2027 25.4719 28.5212 25.6923 27.9513 26.0986C27.3814 26.5049 26.951 27.0774 26.7188 27.7376C26.5593 28.2255 26.4893 28.7382 26.5121 29.251V39.6767H20.31C20.31 39.6705 20.3927 22.7573 20.31 21.0083H26.5162V23.6546C27.0769 22.6778 27.8947 21.8735 28.8808 21.3293C29.8668 20.7851 30.9832 20.5218 32.1085 20.568C36.1915 20.568 39.2533 23.237 39.2533 28.9719V39.6767H39.2513Z" fill="#A9A9A9"/>
</svg>
