<svg width="50" height="51" viewBox="0 0 50 51" fill="none" xmlns="http://www.w3.org/2000/svg">
<path d="M25.1913 5.23633C13.7732 5.23633 4.51758 14.492 4.51758 25.9101C4.51758 35.0541 10.4613 42.7984 18.6894 45.5253C19.6921 45.6804 20.0746 45.0788 20.0746 44.5433C20.0746 44.0513 20.0498 42.4243 20.0498 40.6918C14.8545 41.649 13.5107 39.4266 13.0972 38.2626C12.6382 37.1321 11.9109 36.1302 10.9781 35.3435C10.2545 34.9548 9.22086 33.9997 10.9512 33.9728C12.295 34.1175 13.4796 34.9093 14.1309 36.0919L14.1371 36.1043C14.4206 36.6108 14.8012 37.0564 15.2571 37.4158C15.7129 37.7751 16.2351 38.0411 16.7938 38.1986C17.3525 38.356 17.9368 38.4018 18.5132 38.3333C19.0896 38.2649 19.6469 38.0835 20.1531 37.7995C20.242 36.7452 20.7113 35.7652 21.4701 35.0334C16.8701 34.5165 12.0635 32.7324 12.0635 24.8247C12.0347 22.7704 12.7929 20.7829 14.1826 19.2697C13.5506 17.4839 13.6245 15.5242 14.3893 13.7911C14.3893 13.7911 16.1197 13.2474 20.0746 15.9102C23.4574 14.9798 27.0286 14.9798 30.4114 15.9102C34.3643 13.2226 36.0967 13.7911 36.0967 13.7911C36.8617 15.5236 36.9361 17.4835 36.3035 19.2697C37.6971 20.7804 38.4559 22.7696 38.4225 24.8247C38.4225 32.7593 33.589 34.5165 28.9912 35.0334C29.9876 36.0464 30.4983 37.4398 30.3866 38.858C30.3866 41.6221 30.3598 43.8445 30.3598 44.5433C30.3577 44.7048 30.394 44.8645 30.4658 45.0093C30.5375 45.154 30.6426 45.2796 30.7725 45.3757C30.9023 45.4718 31.0531 45.5357 31.2125 45.5621C31.3719 45.5884 31.5352 45.5765 31.6891 45.5274C39.9193 42.8005 45.8651 35.0561 45.8651 25.9101C45.8651 14.492 36.6094 5.23633 25.1913 5.23633Z" fill="#A9A9A9"/>
</svg>
