<svg width="23" height="23" viewBox="0 0 23 23" fill="none" xmlns="http://www.w3.org/2000/svg">
<path fill-rule="evenodd" clip-rule="evenodd" d="M23 11.5C23 14.55 21.7884 17.4751 19.6317 19.6317C17.4751 21.7884 14.55 23 11.5 23C8.45001 23 5.52494 21.7884 3.36827 19.6317C1.2116 17.4751 0 14.55 0 11.5C0 8.45001 1.2116 5.52494 3.36827 3.36827C5.52494 1.2116 8.45001 0 11.5 0C14.55 0 17.4751 1.2116 19.6317 3.36827C21.7884 5.52494 23 8.45001 23 11.5V11.5ZM10.9911 15.3036C10.8562 15.4386 10.7803 15.6216 10.7803 15.8125C10.7803 16.0034 10.8562 16.1864 10.9911 16.3214C11.1261 16.4563 11.3091 16.5322 11.5 16.5322C11.6909 16.5322 11.8739 16.4563 12.0089 16.3214L16.3214 12.0089C16.3883 11.9421 16.4414 11.8628 16.4776 11.7755C16.5139 11.6882 16.5325 11.5945 16.5325 11.5C16.5325 11.4055 16.5139 11.3118 16.4776 11.2245C16.4414 11.1372 16.3883 11.0579 16.3214 10.9911L12.0089 6.67862C11.942 6.6118 11.8627 6.55879 11.7754 6.52262C11.6881 6.48646 11.5945 6.46784 11.5 6.46784C11.4055 6.46784 11.3119 6.48646 11.2246 6.52262C11.1373 6.55879 11.058 6.6118 10.9911 6.67862C10.9243 6.74545 10.8713 6.82479 10.8351 6.9121C10.799 6.99941 10.7803 7.09299 10.7803 7.1875C10.7803 7.28201 10.799 7.37559 10.8351 7.4629C10.8713 7.55021 10.9243 7.62955 10.9911 7.69638L14.0774 10.7812H7.1875C6.99688 10.7812 6.81406 10.857 6.67927 10.9918C6.54448 11.1266 6.46875 11.3094 6.46875 11.5C6.46875 11.6906 6.54448 11.8734 6.67927 12.0082C6.81406 12.143 6.99688 12.2188 7.1875 12.2188H14.0774L10.9911 15.3036V15.3036Z" fill="black"/>
</svg>
