<svg width="50" height="51" viewBox="0 0 50 51" fill="none" xmlns="http://www.w3.org/2000/svg">
<path d="M45.5584 12.913C44.0101 13.5993 42.3675 14.0495 40.6856 14.2485C42.4578 13.1889 43.7841 11.5209 44.4172 9.55557C42.7522 10.5448 40.93 11.2412 39.0297 11.6147C37.8653 10.3751 36.3554 9.514 34.6957 9.14294C33.036 8.77189 31.3032 8.90803 29.7218 9.53371C28.1404 10.1594 26.7835 11.2458 25.827 12.6519C24.8705 14.0581 24.3585 15.7192 24.3575 17.4199C24.3564 18.0703 24.4292 18.7188 24.5746 19.3529C21.2022 19.1836 17.9031 18.307 14.8914 16.7802C11.8797 15.2533 9.2227 13.1102 7.09286 10.49C6.00803 12.3576 5.67567 14.5684 6.16345 16.6724C6.65123 18.7764 7.92248 20.6154 9.71842 21.8151C8.37034 21.7738 7.05177 21.4101 5.87311 20.7545V20.862C5.87343 22.8208 6.55133 24.7192 7.7918 26.2351C9.03227 27.751 10.7589 28.7912 12.6789 29.1791C11.9505 29.3771 11.1989 29.4766 10.4441 29.4747C9.90791 29.475 9.37289 29.4251 8.84599 29.3259C9.38775 31.0111 10.4425 32.4849 11.8629 33.5413C13.2833 34.5977 14.9983 35.1839 16.7682 35.2179C13.2111 38.0019 8.69593 39.2634 4.21094 38.7262C8.08945 41.2195 12.604 42.543 17.2147 42.5385C20.3897 42.5599 23.5374 41.9503 26.4748 40.7451C29.4123 39.5399 32.081 37.7631 34.326 35.5179C36.571 33.2727 38.3476 30.6038 39.5526 27.6662C40.7575 24.7287 41.3668 21.581 41.3451 18.406C41.3451 18.038 41.3362 17.6728 41.3182 17.3103C42.9815 16.1079 44.4173 14.6189 45.5584 12.913Z" fill="#A9A9A9"/>
</svg>
