<svg width="50" height="50" viewBox="0 0 50 50" fill="none" xmlns="http://www.w3.org/2000/svg">
<path d="M24.8074 14.1929C22.7077 14.1929 20.6553 14.8155 18.9095 15.982C17.1637 17.1485 15.803 18.8065 14.9995 20.7463C14.196 22.6861 13.9858 24.8206 14.3954 26.8799C14.805 28.9392 15.8161 30.8308 17.3008 32.3155C18.7854 33.8001 20.677 34.8112 22.7363 35.2208C24.7956 35.6304 26.9301 35.4202 28.8699 34.6167C30.8097 33.8132 32.4677 32.4525 33.6342 30.7067C34.8007 28.961 35.4233 26.9085 35.4233 24.8088C35.4233 21.9933 34.3049 19.2931 32.314 17.3022C30.3231 15.3113 27.6229 14.1929 24.8074 14.1929V14.1929ZM24.8074 31.7015C23.4441 31.7015 22.1115 31.2972 20.978 30.5398C19.8446 29.7825 18.9611 28.706 18.4394 27.4465C17.9177 26.1871 17.7812 24.8012 18.0472 23.4642C18.3131 22.1271 18.9696 20.899 19.9336 19.935C20.8975 18.9711 22.1257 18.3146 23.4627 18.0487C24.7997 17.7827 26.1856 17.9192 27.4451 18.4409C28.7045 18.9626 29.781 19.846 30.5384 20.9795C31.2958 22.113 31.7 23.4456 31.7 24.8088C31.7003 25.7141 31.5222 26.6105 31.1759 27.4468C30.8296 28.2832 30.3219 29.0432 29.6818 29.6833C29.0417 30.3234 28.2818 30.831 27.4454 31.1773C26.609 31.5236 25.7126 31.7017 24.8074 31.7015Z" fill="#A9A9A9"/>
<path d="M45.3581 16.2847C45.3238 14.5699 44.9987 12.8733 44.3968 11.2672C43.8772 9.88772 43.0638 8.63771 42.0131 7.60382C40.9814 6.55235 39.7326 5.73884 38.3538 5.22014C36.7471 4.61825 35.0497 4.29388 33.3343 4.26088C31.1304 4.15957 30.4255 4.13477 24.8105 4.13477C19.1955 4.13477 18.4905 4.15751 16.2867 4.25881C14.5711 4.29287 12.8738 4.61793 11.2671 5.22014C9.88869 5.7395 8.63999 6.55292 7.60784 7.60382C6.55396 8.63595 5.73893 9.88638 5.22002 11.2672C4.61876 12.8734 4.2944 14.57 4.26076 16.2847C4.15739 18.4885 4.13672 19.1935 4.13672 24.8085C4.13672 30.4235 4.15739 31.1285 4.26076 33.3323C4.29444 35.047 4.61879 36.7436 5.22002 38.3498C5.73844 39.7304 6.55274 40.9808 7.60577 42.0132C8.63902 43.0637 9.88831 43.8771 11.2671 44.3969C12.874 44.9982 14.5713 45.3225 16.2867 45.3561C18.4905 45.4574 19.1955 45.4823 24.8084 45.4823C30.4213 45.4823 31.1284 45.4595 33.3322 45.3582C35.047 45.3239 36.7436 44.9989 38.3497 44.3969C39.7233 43.8658 40.9707 43.0535 42.0121 42.0122C43.0534 40.9708 43.8657 39.7234 44.3968 38.3498C44.9994 36.7439 45.3245 35.0472 45.3581 33.3323C45.4573 31.1264 45.4821 30.4235 45.4821 24.8085C45.4821 19.1935 45.4573 18.4885 45.3581 16.2847ZM41.6368 33.1628C41.6215 34.4736 41.3817 35.7721 40.9277 37.0019C40.5838 37.8936 40.057 38.7035 39.3812 39.3793C38.7054 40.0551 37.8956 40.5819 37.0038 40.9258C35.7745 41.3815 34.4758 41.6221 33.1647 41.6369C30.9836 41.7362 30.3304 41.7569 24.8084 41.7569C19.2864 41.7569 18.6352 41.7362 16.4562 41.6369C15.1452 41.6219 13.8465 41.3814 12.6171 40.9258C11.7193 40.5938 10.907 40.0655 10.2396 39.3794C9.55224 38.713 9.0237 37.9004 8.69321 37.0019C8.23741 35.7725 7.99683 34.4738 7.98204 33.1628C7.8828 30.9838 7.86213 30.3305 7.86213 24.8106C7.86213 19.2907 7.8828 18.6353 7.98204 16.4543C7.99855 15.1434 8.23907 13.845 8.69321 12.6151C9.02509 11.7173 9.55344 10.905 10.2396 10.2377C10.9059 9.55012 11.7185 9.02156 12.6171 8.69126C13.8465 8.23554 15.1452 7.99496 16.4562 7.98008C18.6352 7.87671 19.2906 7.85604 24.8084 7.85604C30.3262 7.85604 30.9836 7.87878 33.1647 7.97802C34.4756 7.99457 35.774 8.23509 37.0038 8.68919C37.8956 9.03295 38.7055 9.55971 39.3814 10.2355C40.0572 10.9114 40.584 11.7213 40.9277 12.6131C41.3834 13.8425 41.624 15.1411 41.6389 16.4522C41.7381 18.6333 41.7588 19.2845 41.7588 24.8064C41.7588 30.3284 41.7381 30.9796 41.6389 33.1607L41.6368 33.1628Z" fill="#A9A9A9"/>
</svg>
